<mxfile host="65bd71144e">
    <diagram id="gsmHgfq-CaOm5Dub3yKY" name="Page-1">
        <mxGraphModel dx="1081" dy="609" grid="1" gridSize="10" guides="1" tooltips="1" connect="1" arrows="1" fold="1" page="1" pageScale="1" pageWidth="850" pageHeight="1100" background="none" math="1" shadow="0">
            <root>
                <mxCell id="0"/>
                <mxCell id="1" parent="0"/>
                <mxCell id="55" style="edgeStyle=orthogonalEdgeStyle;shape=connector;curved=1;rounded=1;comic=1;html=1;labelBackgroundColor=default;fontFamily=Helvetica;fontSize=11;fontColor=default;endArrow=classic;endFill=0;strokeColor=default;elbow=vertical;startArrow=oval;startFill=1;" parent="1" source="32" target="2" edge="1">
                    <mxGeometry relative="1" as="geometry"/>
                </mxCell>
                <mxCell id="56" style="edgeStyle=orthogonalEdgeStyle;shape=connector;curved=1;rounded=1;comic=1;html=1;labelBackgroundColor=default;fontFamily=Helvetica;fontSize=11;fontColor=default;endArrow=classic;endFill=0;strokeColor=default;elbow=vertical;startArrow=oval;startFill=1;" parent="1" source="34" target="2" edge="1">
                    <mxGeometry relative="1" as="geometry"/>
                </mxCell>
                <mxCell id="73" value="Realiza" style="edgeStyle=orthogonalEdgeStyle;shape=connector;curved=1;rounded=1;comic=1;html=1;labelBackgroundColor=default;fontFamily=Helvetica;fontSize=11;fontColor=default;startArrow=oval;startFill=1;endArrow=classic;endFill=0;strokeColor=default;elbow=vertical;" edge="1" parent="1" source="2" target="72">
                    <mxGeometry relative="1" as="geometry"/>
                </mxCell>
                <mxCell id="2" value="Meta" style="rounded=1;whiteSpace=wrap;html=1;fillColor=#6a00ff;fontColor=#ffffff;strokeColor=#3700CC;" parent="1" vertex="1">
                    <mxGeometry x="320" y="80" width="200" height="80" as="geometry"/>
                </mxCell>
                <mxCell id="65" value="" style="edgeStyle=orthogonalEdgeStyle;shape=connector;curved=1;rounded=1;comic=1;html=1;labelBackgroundColor=default;fontFamily=Helvetica;fontSize=11;fontColor=default;startArrow=oval;startFill=1;endArrow=classic;endFill=0;strokeColor=default;elbow=vertical;" edge="1" parent="1" source="24" target="64">
                    <mxGeometry relative="1" as="geometry"/>
                </mxCell>
                <mxCell id="24" value="Si Contiene" style="swimlane;fillColor=#e51400;fontColor=#ffffff;strokeColor=default;gradientColor=none;" parent="1" vertex="1">
                    <mxGeometry x="480" y="440" width="200" height="240" as="geometry">
                        <mxRectangle x="70" y="140" width="90" height="23" as="alternateBounds"/>
                    </mxGeometry>
                </mxCell>
                <mxCell id="23" value="&lt;ol&gt;&lt;li&gt;Pornografia&lt;/li&gt;&lt;li&gt;Drogas&lt;/li&gt;&lt;li&gt;Apuestas&lt;/li&gt;&lt;li&gt;Armas&amp;nbsp;&lt;/li&gt;&lt;li&gt;farmacia&lt;/li&gt;&lt;li&gt;Tabaco&lt;/li&gt;&lt;li&gt;Citas&lt;/li&gt;&lt;/ol&gt;" style="text;strokeColor=default;fillColor=#e51400;html=1;whiteSpace=wrap;verticalAlign=middle;overflow=hidden;fontColor=#ffffff;gradientColor=none;" parent="24" vertex="1">
                    <mxGeometry x="10" y="40" width="180" height="160" as="geometry"/>
                </mxCell>
                <mxCell id="32" value="Facebook" style="ellipse;whiteSpace=wrap;html=1;fontFamily=Helvetica;fontSize=11;fontColor=#ffffff;fillColor=#0050ef;strokeColor=#001DBC;" parent="1" vertex="1">
                    <mxGeometry x="120" y="80" width="120" height="80" as="geometry"/>
                </mxCell>
                <mxCell id="34" value="Instagram" style="ellipse;whiteSpace=wrap;html=1;fontFamily=Helvetica;fontSize=11;fontColor=#ffffff;fillColor=#d80073;strokeColor=#A50040;flipH=0;flipV=1;" parent="1" vertex="1">
                    <mxGeometry x="600" y="80" width="120" height="80" as="geometry"/>
                </mxCell>
                <mxCell id="80" value="" style="edgeStyle=orthogonalEdgeStyle;shape=connector;curved=1;rounded=1;comic=1;html=1;labelBackgroundColor=default;fontFamily=Helvetica;fontSize=11;fontColor=default;startArrow=oval;startFill=1;endArrow=classic;endFill=0;strokeColor=#FFFFFF;elbow=vertical;" edge="1" parent="1" source="62" target="79">
                    <mxGeometry relative="1" as="geometry"/>
                </mxCell>
                <mxCell id="62" value="Aprobado" style="whiteSpace=wrap;html=1;fillColor=#6a00ff;fontColor=#ffffff;fontStyle=1;startSize=23;strokeColor=#FFFFFF;" vertex="1" parent="1">
                    <mxGeometry x="200" y="720" width="120" height="70" as="geometry"/>
                </mxCell>
                <mxCell id="78" value="" style="edgeStyle=orthogonalEdgeStyle;shape=connector;curved=1;rounded=1;comic=1;html=1;labelBackgroundColor=default;fontFamily=Helvetica;fontSize=11;fontColor=default;startArrow=oval;startFill=1;endArrow=classic;endFill=0;strokeColor=default;elbow=vertical;" edge="1" parent="1" source="64" target="77">
                    <mxGeometry relative="1" as="geometry"/>
                </mxCell>
                <mxCell id="64" value="Rechazado" style="ellipse;whiteSpace=wrap;html=1;fillColor=#e51400;fontColor=#ffffff;fontStyle=1;startSize=23;gradientColor=none;" vertex="1" parent="1">
                    <mxGeometry x="520" y="720" width="120" height="70" as="geometry"/>
                </mxCell>
                <mxCell id="71" style="edgeStyle=orthogonalEdgeStyle;shape=connector;curved=1;rounded=1;comic=1;html=1;entryX=0.5;entryY=0;entryDx=0;entryDy=0;labelBackgroundColor=default;fontFamily=Helvetica;fontSize=11;fontColor=default;startArrow=oval;startFill=1;endArrow=classic;endFill=0;strokeColor=#FFFFFF;elbow=vertical;" edge="1" parent="1" source="67" target="62">
                    <mxGeometry relative="1" as="geometry"/>
                </mxCell>
                <mxCell id="67" value="Si Contiene" style="swimlane;fillColor=#6a00ff;fontColor=#ffffff;strokeColor=#FFFFFF;align=center;" vertex="1" parent="1">
                    <mxGeometry x="160" y="440" width="200" height="240" as="geometry">
                        <mxRectangle x="70" y="140" width="90" height="23" as="alternateBounds"/>
                    </mxGeometry>
                </mxCell>
                <mxCell id="68" value="&lt;ol&gt;&lt;li&gt;Todo Lo No Prohibido&lt;/li&gt;&lt;/ol&gt;" style="text;strokeColor=#FFFFFF;fillColor=#6a00ff;html=1;whiteSpace=wrap;verticalAlign=middle;overflow=hidden;fontColor=#ffffff;align=left;labelPosition=center;verticalLabelPosition=middle;" vertex="1" parent="67">
                    <mxGeometry x="10" y="40" width="180" height="160" as="geometry"/>
                </mxCell>
                <mxCell id="74" value="" style="edgeStyle=orthogonalEdgeStyle;shape=connector;curved=1;rounded=1;comic=1;html=1;labelBackgroundColor=default;fontFamily=Helvetica;fontSize=11;fontColor=default;startArrow=oval;startFill=1;endArrow=classic;endFill=0;strokeColor=default;elbow=vertical;" edge="1" parent="1" source="72" target="24">
                    <mxGeometry relative="1" as="geometry"/>
                </mxCell>
                <mxCell id="75" value="" style="edgeStyle=orthogonalEdgeStyle;shape=connector;curved=1;rounded=1;comic=1;html=1;labelBackgroundColor=default;fontFamily=Helvetica;fontSize=11;fontColor=default;startArrow=oval;startFill=1;endArrow=classic;endFill=0;strokeColor=default;elbow=vertical;" edge="1" parent="1" source="72" target="67">
                    <mxGeometry relative="1" as="geometry"/>
                </mxCell>
                <mxCell id="72" value="Evaluacion" style="rhombus;whiteSpace=wrap;html=1;fontFamily=Helvetica;fontSize=11;fontColor=#ffffff;strokeColor=#3700CC;fillColor=#6a00ff;" vertex="1" parent="1">
                    <mxGeometry x="320" y="240" width="200" height="130" as="geometry"/>
                </mxCell>
                <mxCell id="93" value="" style="edgeStyle=orthogonalEdgeStyle;shape=connector;curved=1;rounded=1;comic=1;html=1;labelBackgroundColor=default;fontFamily=Helvetica;fontSize=11;fontColor=default;startArrow=oval;startFill=1;endArrow=classic;endFill=0;strokeColor=#FFFFFF;elbow=vertical;" edge="1" parent="1" source="77" target="94">
                    <mxGeometry relative="1" as="geometry">
                        <mxPoint x="580" y="980" as="targetPoint"/>
                    </mxGeometry>
                </mxCell>
                <mxCell id="77" value="No Se Permite Publicitar" style="whiteSpace=wrap;html=1;fillColor=#e51400;fontColor=#ffffff;fontStyle=1;startSize=23;gradientColor=none;" vertex="1" parent="1">
                    <mxGeometry x="520" y="840" width="120" height="60" as="geometry"/>
                </mxCell>
                <mxCell id="82" value="" style="edgeStyle=orthogonalEdgeStyle;shape=connector;curved=1;rounded=1;comic=1;html=1;labelBackgroundColor=default;fontFamily=Helvetica;fontSize=11;fontColor=default;startArrow=oval;startFill=1;endArrow=classic;endFill=0;strokeColor=#FFFFFF;elbow=vertical;" edge="1" parent="1" source="79" target="81">
                    <mxGeometry relative="1" as="geometry"/>
                </mxCell>
                <mxCell id="79" value="Se Publca" style="whiteSpace=wrap;html=1;fillColor=#6a00ff;strokeColor=#FFFFFF;fontColor=#ffffff;fontStyle=1;startSize=23;" vertex="1" parent="1">
                    <mxGeometry x="200" y="840" width="120" height="60" as="geometry"/>
                </mxCell>
                <mxCell id="84" value="" style="edgeStyle=orthogonalEdgeStyle;shape=connector;curved=1;rounded=1;comic=1;html=1;labelBackgroundColor=default;fontFamily=Helvetica;fontSize=11;fontColor=default;startArrow=oval;startFill=1;endArrow=classic;endFill=0;strokeColor=#FFFFFF;elbow=vertical;" edge="1" parent="1" source="81">
                    <mxGeometry relative="1" as="geometry">
                        <mxPoint x="260" y="1100" as="targetPoint"/>
                    </mxGeometry>
                </mxCell>
                <mxCell id="81" value="Resultados En Adminitrador De Anuncios" style="whiteSpace=wrap;html=1;fillColor=#6a00ff;strokeColor=#FFFFFF;fontColor=#ffffff;fontStyle=1;startSize=23;" vertex="1" parent="1">
                    <mxGeometry x="200" y="960" width="120" height="60" as="geometry"/>
                </mxCell>
                <mxCell id="91" style="edgeStyle=orthogonalEdgeStyle;shape=connector;curved=1;rounded=1;comic=1;html=1;exitX=0.5;exitY=1;exitDx=0;exitDy=0;labelBackgroundColor=default;fontFamily=Helvetica;fontSize=11;fontColor=default;startArrow=oval;startFill=1;endArrow=classic;endFill=0;strokeColor=#FFFFFF;elbow=vertical;" edge="1" parent="1" source="87" target="89">
                    <mxGeometry relative="1" as="geometry"/>
                </mxCell>
                <mxCell id="87" value="" style="rhombus;whiteSpace=wrap;html=1;fontFamily=Helvetica;fontSize=11;fontColor=default;strokeColor=default;fillColor=#FF0000;" vertex="1" parent="1">
                    <mxGeometry x="100" y="1100" width="320" height="320" as="geometry"/>
                </mxCell>
                <mxCell id="85" value="Revisiones Futuras" style="swimlane;fillColor=#FF0000;fontColor=#ffffff;strokeColor=#FFFFFF;align=center;" vertex="1" parent="1">
                    <mxGeometry x="160" y="1160" width="200" height="160" as="geometry">
                        <mxRectangle x="70" y="140" width="90" height="23" as="alternateBounds"/>
                    </mxGeometry>
                </mxCell>
                <mxCell id="86" value="&lt;ol&gt;&lt;li&gt;Reacciones Negativas&lt;/li&gt;&lt;li&gt;Marcado como Spam&lt;/li&gt;&lt;li&gt;Ocultado&lt;/li&gt;&lt;/ol&gt;" style="text;strokeColor=default;fillColor=#FF0000;html=1;whiteSpace=wrap;verticalAlign=middle;overflow=hidden;fontColor=#ffffff;align=left;labelPosition=center;verticalLabelPosition=middle;" vertex="1" parent="85">
                    <mxGeometry x="10" y="40" width="180" height="80" as="geometry"/>
                </mxCell>
                <mxCell id="88" value="" style="edgeStyle=orthogonalEdgeStyle;shape=connector;curved=1;rounded=1;comic=1;html=1;labelBackgroundColor=default;fontFamily=Helvetica;fontSize=11;fontColor=default;startArrow=oval;startFill=1;endArrow=classic;endFill=0;strokeColor=default;elbow=vertical;" edge="1" parent="1" source="89" target="90">
                    <mxGeometry relative="1" as="geometry"/>
                </mxCell>
                <mxCell id="89" value="Rechazado" style="ellipse;whiteSpace=wrap;html=1;fillColor=#e51400;fontColor=#ffffff;fontStyle=1;startSize=23;gradientColor=none;" vertex="1" parent="1">
                    <mxGeometry x="200" y="1460" width="120" height="70" as="geometry"/>
                </mxCell>
                <mxCell id="90" value="No Se Permite Publicitar" style="whiteSpace=wrap;html=1;fillColor=#e51400;fontColor=#ffffff;fontStyle=1;startSize=23;gradientColor=none;" vertex="1" parent="1">
                    <mxGeometry x="200" y="1580" width="120" height="60" as="geometry"/>
                </mxCell>
                <mxCell id="94" value="Editar Publicacion" style="whiteSpace=wrap;html=1;fillColor=#6a00ff;strokeColor=#FFFFFF;fontColor=#ffffff;fontStyle=1;startSize=23;" vertex="1" parent="1">
                    <mxGeometry x="520" y="960" width="120" height="60" as="geometry"/>
                </mxCell>
            </root>
        </mxGraphModel>
    </diagram>
</mxfile>